PathFileType	4	(X/Y/Z)	C:\Users\visiteur\Documents\Sourcetree_OSPipeline\dataTest\rep_global_FRMB\AM02SH\Statique\Static_B_ref.trc
DataRate	CameraRate	NumFrames	NumMarkers	Units	OrigDataRate	OrigDataStartFrame	OrigNumFrames
100	100	8	49	m	100	169	240
Frame#	Time	MTTETE			TEMPG			OCCG			OCCD			TEMPD			MAN			C7			T8			XYP			COSTALD			COSTALG			MTACDL			MTACDM			MTACDB			ACD			CLAVD			MTACGL			MTACGM			MTACGB			ACG			CLAVG			MTBHAG			MTBHPG			MTBBPG			MTBBAG			ELG			EMG			MTABG			PSRG			PSUG			MC2G			MC5G			MTBHAD			MTBHPD			MTBBPD			MTBBAD			ELD			EMD			MTABD			PSRD			PSUD			MC2D			MC5D			FRMA			FRMRD			FRMRG			FRMAD			FRMAG			FRMT			
		X1	Y1	Z1	X2	Y2	Z2	X3	Y3	Z3	X4	Y4	Z4	X5	Y5	Z5	X6	Y6	Z6	X7	Y7	Z7	X8	Y8	Z8	X9	Y9	Z9	X10	Y10	Z10	X11	Y11	Z11	X12	Y12	Z12	X13	Y13	Z13	X14	Y14	Z14	X15	Y15	Z15	X16	Y16	Z16	X17	Y17	Z17	X18	Y18	Z18	X19	Y19	Z19	X20	Y20	Z20	X21	Y21	Z21	X22	Y22	Z22	X23	Y23	Z23	X24	Y24	Z24	X25	Y25	Z25	X26	Y26	Z26	X27	Y27	Z27	X28	Y28	Z28	X29	Y29	Z29	X30	Y30	Z30	X31	Y31	Z31	X32	Y32	Z32	X33	Y33	Z33	X34	Y34	Z34	X35	Y35	Z35	X36	Y36	Z36	X37	Y37	Z37	X38	Y38	Z38	X39	Y39	Z39	X40	Y40	Z40	X41	Y41	Z41	X42	Y42	Z42	X43	Y43	Z43	X44	Y44	Z44	X45	Y45	Z45	X46	Y46	Z46	X47	Y47	Z47	X48	Y48	Z48	X49	Y49	Z49	
121	1.2100	0.254467	1.652482	0.014691	0.330691	1.633014	-0.034066	0.331694	1.593942	-0.148485	0.161082	1.600472	-0.146073	0.158955	1.631924	-0.039032	0.239957	1.417090	-0.047728	0.247125	1.470418	-0.215005	0.264626	1.258967	-0.233729	0.234763	1.246631	0.028023	0.164759	1.190643	0.024735	0.329904	1.188303	0.046054	0.111544	1.440701	-0.231150	0.159404	1.441684	-0.260538	0.124073	1.419870	-0.262654	0.102247	1.468984	-0.201592	0.159983	1.454070	-0.095953	0.390223	1.456240	-0.213614	0.343340	1.468873	-0.242265	0.376813	1.442759	-0.246181	0.388303	1.487147	-0.176789	0.317001	1.457378	-0.073795	0.501897	1.476756	-0.215932	0.513292	1.383859	-0.200618	0.602170	1.397695	-0.182609	0.593253	1.450752	-0.191844	0.695219	1.480266	-0.155798	0.693780	1.444472	-0.087338	0.813464	1.575289	-0.115431	0.917911	1.613092	-0.126595	0.935774	1.540313	-0.119626	1.003430	1.615334	-0.146352	1.012715	1.559038	-0.116188	0.016739	1.475523	-0.226918	0.014329	1.430649	-0.253917	-0.070941	1.440039	-0.222372	-0.071531	1.500461	-0.186659	-0.206299	1.441476	-0.174912	-0.211096	1.410744	-0.105026	-0.356018	1.570827	-0.123328	-0.411708	1.598614	-0.109961	-0.445690	1.529506	-0.130499	-0.494762	1.630263	-0.152243	-0.513532	1.555118	-0.133970	-2.155389	0.340994	0.215364	-2.461962	0.314029	0.540443	-1.858001	0.309393	0.566590	-2.369552	0.340308	1.051948	-2.003307	0.342607	1.067198	-2.011203	0.257843	1.145719	
122	1.2200	0.254413	1.652506	0.014597	0.330781	1.633032	-0.034334	0.331576	1.593937	-0.148739	0.160968	1.600465	-0.145996	0.159033	1.631940	-0.038964	0.239913	1.417067	-0.047826	0.247075	1.470411	-0.215079	0.264601	1.258952	-0.233753	0.234718	1.246609	0.027958	0.164730	1.190610	0.024663	0.329880	1.188302	0.046012	0.111518	1.440656	-0.231236	0.159365	1.441686	-0.260633	0.124044	1.419830	-0.262737	0.102205	1.468950	-0.201678	0.159926	1.454015	-0.096045	0.390166	1.456217	-0.213696	0.343284	1.468847	-0.242335	0.376749	1.442727	-0.246259	0.388240	1.487128	-0.176883	0.316972	1.457356	-0.073880	0.501826	1.476748	-0.216009	0.513243	1.383868	-0.200681	0.602141	1.397725	-0.182671	0.593200	1.450776	-0.191920	0.695154	1.480325	-0.155876	0.693722	1.444549	-0.087409	0.813372	1.575388	-0.115541	0.917813	1.613209	-0.126710	0.935700	1.540435	-0.119719	1.003327	1.615464	-0.146467	1.012633	1.559174	-0.116287	0.016706	1.475475	-0.227012	0.014291	1.430595	-0.254012	-0.070963	1.439987	-0.222478	-0.071574	1.500405	-0.186760	-0.206331	1.441409	-0.175026	-0.211112	1.410708	-0.105165	-0.356074	1.570748	-0.123460	-0.411767	1.598532	-0.110094	-0.445742	1.529417	-0.130634	-0.494817	1.630174	-0.152383	-0.513585	1.555030	-0.134112	-2.155389	0.340995	0.215363	-2.461961	0.314029	0.540443	-1.857996	0.309393	0.566590	-2.369551	0.340307	1.051949	-2.003309	0.342607	1.067196	-2.011204	0.257845	1.145718	
123	1.2300	0.254381	1.652525	0.014501	0.330871	1.633046	-0.034587	0.331456	1.593930	-0.148991	0.160850	1.600459	-0.145921	0.159108	1.631955	-0.038898	0.239868	1.417043	-0.047929	0.247024	1.470404	-0.215156	0.264575	1.258936	-0.233778	0.234672	1.246587	0.027891	0.164701	1.190577	0.024588	0.329858	1.188300	0.045967	0.111491	1.440614	-0.231322	0.159328	1.441696	-0.260734	0.124014	1.419790	-0.262822	0.102163	1.468913	-0.201771	0.159882	1.453955	-0.096140	0.390106	1.456193	-0.213785	0.343227	1.468822	-0.242409	0.376681	1.442695	-0.246342	0.388176	1.487109	-0.176982	0.316943	1.457334	-0.073971	0.501744	1.476733	-0.216084	0.513191	1.383876	-0.200746	0.602109	1.397755	-0.182736	0.593144	1.450801	-0.192001	0.695087	1.480388	-0.155959	0.693663	1.444627	-0.087487	0.813275	1.575490	-0.115656	0.917710	1.613333	-0.126830	0.935623	1.540559	-0.119816	1.003223	1.615597	-0.146585	1.012550	1.559314	-0.116389	0.016676	1.475431	-0.227109	0.014252	1.430542	-0.254111	-0.070987	1.439939	-0.222589	-0.071615	1.500350	-0.186866	-0.206364	1.441347	-0.175147	-0.211141	1.410665	-0.105296	-0.356127	1.570676	-0.123599	-0.411825	1.598461	-0.110234	-0.445794	1.529340	-0.130779	-0.494872	1.630094	-0.152533	-0.513636	1.554952	-0.134264	-2.155389	0.340995	0.215362	-2.461960	0.314030	0.540444	-1.857987	0.309395	0.566590	-2.369549	0.340304	1.051951	-2.003308	0.342606	1.067196	-2.011206	0.257847	1.145717	
124	1.2400	0.254392	1.652542	0.014402	0.330960	1.633058	-0.034827	0.331334	1.593926	-0.149243	0.160728	1.600454	-0.145849	0.159180	1.631967	-0.038833	0.239824	1.417020	-0.048039	0.246970	1.470399	-0.215238	0.264546	1.258918	-0.233804	0.234627	1.246568	0.027822	0.164670	1.190546	0.024513	0.329835	1.188298	0.045919	0.111461	1.440576	-0.231409	0.159295	1.441713	-0.260839	0.123983	1.419748	-0.262911	0.102122	1.468875	-0.201873	0.159849	1.453892	-0.096238	0.390043	1.456169	-0.213880	0.343168	1.468800	-0.242487	0.376609	1.442662	-0.246429	0.388112	1.487090	-0.177085	0.316916	1.457312	-0.074068	0.501651	1.476710	-0.216155	0.513139	1.383885	-0.200814	0.602076	1.397786	-0.182805	0.593084	1.450826	-0.192085	0.695018	1.480453	-0.156046	0.693602	1.444704	-0.087572	0.813178	1.575595	-0.115774	0.917604	1.613461	-0.126954	0.935545	1.540686	-0.119916	1.003119	1.615735	-0.146704	1.012466	1.559458	-0.116495	0.016648	1.475392	-0.227208	0.014213	1.430492	-0.254213	-0.071014	1.439894	-0.222706	-0.071656	1.500297	-0.186977	-0.206399	1.441291	-0.175274	-0.211180	1.410619	-0.105422	-0.356180	1.570611	-0.123745	-0.411883	1.598397	-0.110382	-0.445847	1.529272	-0.130932	-0.494926	1.630024	-0.152692	-0.513686	1.554882	-0.134427	-2.155389	0.340995	0.215362	-2.461960	0.314030	0.540445	-1.857975	0.309398	0.566591	-2.369547	0.340301	1.051952	-2.003306	0.342605	1.067195	-2.011208	0.257850	1.145716	
125	1.2500	0.254455	1.652555	0.014299	0.331046	1.633070	-0.035057	0.331211	1.593925	-0.149496	0.160603	1.600449	-0.145781	0.159249	1.631976	-0.038769	0.239781	1.417000	-0.048153	0.246914	1.470396	-0.215324	0.264516	1.258901	-0.233831	0.234583	1.246552	0.027752	0.164638	1.190518	0.024437	0.329810	1.188297	0.045868	0.111430	1.440543	-0.231496	0.159264	1.441732	-0.260945	0.123953	1.419707	-0.263002	0.102081	1.468837	-0.201981	0.159824	1.453828	-0.096338	0.389978	1.456145	-0.213982	0.343110	1.468778	-0.242571	0.376534	1.442628	-0.246519	0.388049	1.487072	-0.177192	0.316894	1.457292	-0.074170	0.501548	1.476679	-0.216222	0.513088	1.383894	-0.200887	0.602042	1.397819	-0.182882	0.593022	1.450853	-0.192174	0.694949	1.480519	-0.156139	0.693541	1.444781	-0.087663	0.813080	1.575701	-0.115896	0.917497	1.613591	-0.127083	0.935467	1.540815	-0.120021	1.003017	1.615877	-0.146825	1.012381	1.559604	-0.116606	0.016621	1.475355	-0.227310	0.014176	1.430442	-0.254319	-0.071045	1.439852	-0.222827	-0.071696	1.500246	-0.187096	-0.206437	1.441240	-0.175406	-0.211225	1.410575	-0.105549	-0.356231	1.570553	-0.123898	-0.411941	1.598342	-0.110540	-0.445900	1.529212	-0.131092	-0.494980	1.629960	-0.152861	-0.513734	1.554820	-0.134599	-2.155388	0.340994	0.215362	-2.461960	0.314031	0.540445	-1.857963	0.309400	0.566592	-2.369545	0.340299	1.051953	-2.003303	0.342605	1.067195	-2.011208	0.257852	1.145716	
126	1.2600	0.254565	1.652566	0.014192	0.331131	1.633084	-0.035282	0.331085	1.593929	-0.149751	0.160473	1.600445	-0.145715	0.159315	1.631983	-0.038705	0.239739	1.416982	-0.048273	0.246857	1.470396	-0.215414	0.264486	1.258884	-0.233864	0.234540	1.246539	0.027680	0.164605	1.190492	0.024362	0.329784	1.188297	0.045817	0.111397	1.440518	-0.231585	0.159234	1.441752	-0.261052	0.123923	1.419666	-0.263096	0.102040	1.468798	-0.202095	0.159801	1.453766	-0.096440	0.389913	1.456121	-0.214089	0.343052	1.468758	-0.242661	0.376459	1.442593	-0.246614	0.387985	1.487054	-0.177304	0.316878	1.457273	-0.074278	0.501439	1.476643	-0.216289	0.513039	1.383903	-0.200964	0.602007	1.397854	-0.182967	0.592957	1.450882	-0.192268	0.694881	1.480585	-0.156238	0.693480	1.444856	-0.087760	0.812984	1.575807	-0.116023	0.917389	1.613723	-0.127216	0.935387	1.540945	-0.120132	1.002916	1.616022	-0.146952	1.012296	1.559754	-0.116723	0.016595	1.475318	-0.227416	0.014139	1.430393	-0.254427	-0.071080	1.439812	-0.222953	-0.071736	1.500198	-0.187221	-0.206477	1.441192	-0.175544	-0.211272	1.410533	-0.105680	-0.356281	1.570501	-0.124059	-0.411998	1.598292	-0.110708	-0.445954	1.529157	-0.131259	-0.495033	1.629901	-0.153041	-0.513783	1.554765	-0.134779	-2.155388	0.340993	0.215363	-2.461960	0.314032	0.540445	-1.857952	0.309401	0.566595	-2.369544	0.340297	1.051953	-2.003299	0.342604	1.067194	-2.011208	0.257854	1.145715	
127	1.2700	0.254707	1.652576	0.014081	0.331213	1.633100	-0.035505	0.330956	1.593939	-0.150008	0.160341	1.600442	-0.145652	0.159378	1.631986	-0.038643	0.239698	1.416967	-0.048396	0.246798	1.470397	-0.215508	0.264457	1.258870	-0.233905	0.234499	1.246528	0.027607	0.164570	1.190468	0.024286	0.329756	1.188298	0.045763	0.111360	1.440498	-0.231679	0.159206	1.441766	-0.261156	0.123894	1.419626	-0.263193	0.101998	1.468760	-0.202212	0.159774	1.453708	-0.096544	0.389848	1.456095	-0.214202	0.342996	1.468738	-0.242758	0.376385	1.442556	-0.246711	0.387922	1.487037	-0.177420	0.316867	1.457256	-0.074390	0.501331	1.476607	-0.216359	0.512994	1.383910	-0.201047	0.601970	1.397891	-0.183062	0.592891	1.450911	-0.192366	0.694812	1.480649	-0.156342	0.693422	1.444930	-0.087861	0.812891	1.575911	-0.116153	0.917283	1.613852	-0.127355	0.935307	1.541076	-0.120251	1.002817	1.616171	-0.147086	1.012211	1.559906	-0.116847	0.016568	1.475279	-0.227524	0.014104	1.430344	-0.254538	-0.071118	1.439773	-0.223081	-0.071777	1.500151	-0.187352	-0.206518	1.441146	-0.175687	-0.211320	1.410496	-0.105816	-0.356330	1.570455	-0.124226	-0.412053	1.598247	-0.110886	-0.446008	1.529105	-0.131430	-0.495084	1.629847	-0.153232	-0.513830	1.554715	-0.134966	-2.155388	0.340991	0.215364	-2.461961	0.314033	0.540444	-1.857945	0.309402	0.566598	-2.369543	0.340295	1.051953	-2.003295	0.342605	1.067193	-2.011207	0.257857	1.145715	
128	1.2800	0.254865	1.652586	0.013966	0.331290	1.633119	-0.035727	0.330823	1.593955	-0.150269	0.160206	1.600438	-0.145593	0.159437	1.631986	-0.038583	0.239656	1.416955	-0.048523	0.246738	1.470399	-0.215603	0.264429	1.258858	-0.233957	0.234458	1.246519	0.027532	0.164535	1.190446	0.024209	0.329726	1.188300	0.045708	0.111320	1.440483	-0.231778	0.159177	1.441772	-0.261257	0.123864	1.419588	-0.263290	0.101956	1.468722	-0.202330	0.159741	1.453654	-0.096649	0.389783	1.456069	-0.214318	0.342940	1.468717	-0.242862	0.376311	1.442519	-0.246811	0.387859	1.487021	-0.177540	0.316858	1.457240	-0.074506	0.501229	1.476578	-0.216440	0.512951	1.383916	-0.201135	0.601932	1.397927	-0.183166	0.592823	1.450939	-0.192468	0.694744	1.480710	-0.156452	0.693365	1.445001	-0.087965	0.812801	1.576010	-0.116290	0.917178	1.613978	-0.127499	0.935226	1.541205	-0.120376	1.002720	1.616321	-0.147228	1.012125	1.560059	-0.116976	0.016540	1.475237	-0.227637	0.014069	1.430295	-0.254651	-0.071160	1.439733	-0.223212	-0.071819	1.500106	-0.187489	-0.206561	1.441101	-0.175832	-0.211368	1.410461	-0.105956	-0.356379	1.570413	-0.124400	-0.412108	1.598206	-0.111073	-0.446062	1.529057	-0.131606	-0.495134	1.629797	-0.153432	-0.513878	1.554670	-0.135157	-2.155388	0.340991	0.215365	-2.461962	0.314034	0.540443	-1.857940	0.309401	0.566601	-2.369543	0.340295	1.051953	-2.003292	0.342606	1.067193	-2.011206	0.257859	1.145714	
